HIERARCHY
ROOT hip
{
	OFFSET 0.000000 0.000000 0.000000 
	CHANNELS 6 Xposition Yposition Zposition Xrotation Zrotation Yrotation
	JOINT abdomen
	{
		OFFSET 0.000000 3.402643 0.000000 
		CHANNELS 3 Xrotation Zrotation Yrotation
		JOINT chest
		{
			OFFSET 0.000000 8.438565 -0.680529 
			CHANNELS 3 Xrotation Zrotation Yrotation
			JOINT neck
			{
				OFFSET 0.000000 10.207942 -0.272212 
				CHANNELS 3 Xrotation Zrotation Yrotation
				JOINT head
				{
					OFFSET 0.000000 3.130431 0.000000 
					CHANNELS 3 Xrotation Zrotation Yrotation
					End Site
					{
						OFFSET 0.000000 3.130435 0.000000 
					}
				}
			}
			JOINT lCollar
			{
				OFFSET 3.470700 6.669187 -0.816635 
				CHANNELS 3 Yrotation Zrotation Xrotation
				JOINT lShldr
				{
					OFFSET 3.198488 0.000000 0.000000 
					CHANNELS 3 Zrotation Yrotation Xrotation
					JOINT lForeArm
					{
						OFFSET 10.139888 0.000000 0.000000 
						CHANNELS 3 Yrotation Zrotation Xrotation
						JOINT lHand
						{
							OFFSET 8.370511 0.000000 0.000000 
							CHANNELS 3 Zrotation Yrotation Xrotation
							End Site
							{
								OFFSET 4.083176 0.000000 0.000000 
							}
						}
					}
				}
			}
			JOINT rCollar
			{
				OFFSET -3.470700 6.669187 -0.816635 
				CHANNELS 3 Yrotation Zrotation Xrotation
				JOINT rShldr
				{
					OFFSET -3.198488 0.000000 0.000000 
					CHANNELS 3 Zrotation Yrotation Xrotation
					JOINT rForeArm
					{
						OFFSET -10.139888 0.000000 0.000000 
						CHANNELS 3 Yrotation Zrotation Xrotation
						JOINT rHand
						{
							OFFSET -8.370511 0.000000 0.000000 
							CHANNELS 3 Zrotation Yrotation Xrotation
							End Site
							{
								OFFSET -4.083176 0.000000 0.000000 
							}
						}
					}
				}
			}
		}
	}
	JOINT lThigh
	{
		OFFSET 5.308129 -1.633274 1.361059 
		CHANNELS 3 Xrotation Zrotation Yrotation
		JOINT lShin
		{
			OFFSET -2.041588 -20.007561 0.000000 
			CHANNELS 3 Xrotation Zrotation Yrotation
			JOINT lFoot
			{
				OFFSET 0.000000 -19.190928 -1.224953 
				CHANNELS 3 Xrotation Yrotation Zrotation
				End Site
				{
					OFFSET 0.000000 -2.449906 4.627600 
				}
			}
		}
	}
	JOINT rThigh
	{
		OFFSET -5.308129 -1.633274 1.361059 
		CHANNELS 3 Xrotation Zrotation Yrotation
		JOINT rShin
		{
			OFFSET 2.041588 -20.007561 0.000000 
			CHANNELS 3 Xrotation Zrotation Yrotation
			JOINT rFoot
			{
				OFFSET 0.000000 -19.190928 -1.224953 
				CHANNELS 3 Xrotation Yrotation Zrotation
				End Site
				{
					OFFSET 0.000000 -2.449906 4.627600 
				}
			}
		}
	}
}
MOTION
Frames: 8
Frame Time: 0.016667
0.183567 54.681648 -1.353620 -23.943548 -2.328201 4.036216 33.919029 5.810472 1.767033 1.297813 2.499679 -1.368018 -1.043144 -1.117392 -0.008890 26.855165 -5.462856 2.668349 -10.514849 -17.585735 -0.933812 -62.126450 26.854639 -40.364101 -13.716057 -5.000000 45.000000 0.040896 2.922692 -45.000000 8.186019 14.610129 -0.781248 64.163216 -23.044893 -41.265312 18.125692 5.000000 44.119972 -15.413009 -21.699001 -45.000000 27.667391 20.035957 14.702935 7.910408 -6.527969 -1.169939 -4.672390 6.803426 -16.618401 26.652700 -7.974885 4.040994 8.570664 6.028568 1.194098 13.548689 -14.209008 25.638636 
0.180996 54.681648 -1.351054 -23.970388 -2.299005 4.026462 33.949112 5.754329 1.751684 1.346641 2.499679 -1.377783 -1.111503 -1.117392 -0.008890 26.865862 -5.462899 2.657699 -10.475117 -17.546732 -0.931801 -62.109104 26.836422 -40.324394 -13.736073 -5.000000 45.000000 0.169596 3.095746 -45.000000 8.127563 14.619892 -0.781755 64.153503 -22.969168 -41.234062 18.154766 5.000000 44.075436 -15.182884 -21.859339 -45.000000 27.692406 20.019154 14.688733 7.918731 -6.516983 -1.198447 -4.663360 6.918442 -16.719215 26.678661 -7.987560 4.058287 8.627775 6.049093 1.210347 13.476093 -14.341617 25.613317 
0.179969 54.680099 -1.351575 -23.961014 -2.298977 4.036219 33.986309 5.741896 1.736625 1.386017 2.480150 -1.348487 -1.209350 -1.077309 -0.005074 26.835703 -5.473079 2.560487 -10.425788 -17.517479 -0.930292 -62.048244 26.790695 -40.253361 -13.742826 -5.000000 45.000000 0.267856 3.340642 -45.000000 8.001438 14.678421 -0.784788 64.059761 -22.908030 -41.149033 18.167177 5.000000 44.116470 -14.967359 -22.046694 -45.000000 27.692368 20.019236 14.658469 7.919262 -6.546756 -1.219428 -4.654882 6.993686 -16.719780 26.648275 -7.987161 4.058099 8.684925 6.087074 1.217879 13.470495 -14.395369 25.601959 
0.179972 54.677517 -1.354148 -23.943747 -2.308607 4.075249 34.014572 5.744468 1.751747 1.425550 2.450857 -1.289893 -1.316952 -1.017914 -0.004176 26.780966 -5.483443 2.412807 -10.386559 -17.507727 -0.929789 -61.948196 26.721891 -40.158966 -13.729063 -5.000000 45.000000 0.344902 3.629533 -45.000000 7.817001 14.756469 -0.788831 63.923103 -22.820271 -41.033787 18.172899 5.000000 44.195919 -14.762839 -22.236420 -45.000000 27.651814 20.056946 14.626131 7.924762 -6.570681 -1.231402 -4.630703 7.048722 -16.685608 26.620060 -7.948570 4.029874 8.720970 6.121082 1.223465 13.448514 -14.486964 25.518908 
0.180489 54.675972 -1.357242 -23.926096 -2.318263 4.104915 34.050838 5.745963 1.741837 1.465496 2.421571 -1.240661 -1.434309 -0.968175 -0.001819 26.714638 -5.493698 2.285502 -10.318034 -17.497974 -0.929286 -61.856220 26.631136 -40.053856 -13.733320 -5.000000 45.000000 0.392689 3.919935 -45.000000 7.652102 14.834507 -0.792871 63.798378 -22.730064 -40.930874 18.178490 5.000000 44.271851 -14.568437 -22.432247 -45.000000 27.610607 20.095436 14.563872 7.940714 -6.597306 -1.244428 -4.593846 7.016381 -16.710323 26.605330 -7.936396 3.992713 8.739655 6.128195 1.234374 13.421532 -14.482738 25.528227 
0.183068 54.678558 -1.362390 -23.953371 -2.279245 4.124042 34.148033 5.694626 1.731835 1.496181 2.411825 -1.211392 -1.561424 -0.957058 0.006376 26.645338 -5.493661 2.295223 -10.181314 -17.497974 -0.929286 -61.753647 26.499458 -39.858009 -13.781695 -5.000000 45.000000 0.348318 4.256747 -45.000000 7.535756 14.893036 -0.795901 63.685654 -22.652485 -40.859879 18.186752 5.000000 44.303864 -14.380784 -22.588625 -45.000000 27.605339 20.068348 14.522545 7.958508 -6.576455 -1.214921 -4.551866 7.120833 -16.847431 26.629040 -7.957780 4.006997 8.725838 6.098265 1.183103 13.419751 -14.521055 25.539541 
0.185646 54.681133 -1.367537 -23.980619 -2.240228 4.143562 34.235882 5.662225 1.730471 1.527002 2.392315 -1.182123 -1.688377 -0.957058 0.006376 26.576433 -5.483866 2.304945 -10.044595 -17.497974 -0.929286 -61.649677 26.376032 -39.658161 -13.840219 -5.000000 45.000000 0.298373 4.582069 -45.000000 7.429180 14.951566 -0.798929 63.584900 -22.572668 -40.801006 18.187502 5.000000 44.339081 -14.198319 -22.751078 -45.000000 27.601645 20.056404 14.488831 7.993923 -6.580964 -1.170255 -4.567423 7.166350 -16.977873 26.666145 -7.976096 3.981285 8.706425 6.057392 1.178959 13.376614 -14.497395 25.572258 
0.194402 54.683708 -1.370625 -23.962284 -2.230350 4.192355 34.275234 5.660954 1.732997 1.556009 2.411844 -1.191886 -1.805569 -0.986025 0.010754 26.516228 -5.454479 2.334111 -9.950140 -17.506039 -0.938963 -61.611317 26.251251 -39.547169 -13.835496 -5.000000 45.000000 0.289453 4.935887 -45.000000 7.299501 14.943078 -0.789069 63.519142 -22.481852 -40.648296 18.180740 5.000000 44.377506 -13.916479 -22.923786 -45.000000 27.535406 20.077154 14.456679 8.040439 -6.569591 -1.203593 -4.648873 7.128883 -17.013382 26.659971 -7.958358 3.997228 8.667102 6.029861 1.125124 13.458867 -14.491016 25.660446 
